<svg width="32" height="33" viewBox="0 0 32 33" fill="none" xmlns="http://www.w3.org/2000/svg">
<mask id="mask0_5313_1477" style="mask-type:alpha" maskUnits="userSpaceOnUse" x="0" y="0" width="32" height="33">
<rect y="0.589844" width="32" height="32" fill="#D9D9D9"/>
</mask>
<g mask="url(#mask0_5313_1477)">
<path d="M10.2663 29.0566V17.0233C9.23294 16.9566 8.3635 16.5466 7.65794 15.7933C6.95239 15.04 6.59961 14.1074 6.59961 12.9956V4.12329H7.33294V12.99H10.2663V4.12329H10.9996V12.99H13.8996V4.12329H14.6329V12.9956C14.6329 14.1074 14.2802 15.04 13.5746 15.7933C12.8691 16.5466 12.0107 16.9566 10.9996 17.0233V29.0566H10.2663ZM22.3996 29.0566V18.39H19.3996V9.65662C19.3996 8.3244 19.7107 7.13851 20.3329 6.09896C20.9552 5.05963 21.8885 4.42329 23.1329 4.18996V29.0566H22.3996Z" fill="#E9B86A"/>
</g>
</svg>
