<svg width="199" height="31" viewBox="0 0 199 31" fill="none" xmlns="http://www.w3.org/2000/svg">
<path d="M1.92322 30.4498C1.11322 30.3898 0.708223 30.1348 0.708223 29.6848C0.708223 29.4748 0.798222 29.2198 0.978222 28.9198C1.06822 28.6498 1.21822 28.4698 1.42822 28.3798C1.24822 28.7698 1.15822 29.0848 1.15822 29.3248C1.15822 29.7748 1.51822 29.9998 2.23822 29.9998C3.91822 29.9998 6.03322 29.2198 8.58322 27.6598C7.11322 26.9998 6.37822 26.0248 6.37822 24.7348C6.37822 23.8648 6.73822 22.9798 7.45822 22.0798C8.95822 20.2498 11.2532 18.9748 14.3432 18.2548C13.9532 17.1148 13.7582 15.8248 13.7582 14.3848C13.7582 12.5548 14.0582 10.8298 14.6582 9.20984C15.6182 6.53984 16.8932 4.49984 18.4832 3.08984C19.8632 1.85984 21.2582 1.24484 22.6682 1.24484C23.6882 1.24484 24.5282 1.58984 25.1882 2.27984C25.8482 2.93984 26.1782 3.86984 26.1782 5.06984C26.1782 6.05984 25.8782 7.22984 25.2782 8.57984C23.9882 11.3698 21.7382 14.3698 18.5282 17.5798L20.2832 17.3998C21.3032 16.4098 22.3382 15.3148 23.3882 14.1148C24.4682 12.8848 25.5782 11.5648 26.7182 10.1548C29.8682 6.22484 31.4432 3.55484 31.4432 2.14484C31.4432 1.48484 31.0832 1.13984 30.3632 1.10984C30.1832 1.10984 30.0932 1.04984 30.0932 0.929842C30.0932 0.779842 30.2432 0.704842 30.5432 0.704842C31.9532 0.764843 32.6582 1.34984 32.6582 2.45984C32.6582 3.17984 32.3432 4.15484 31.7132 5.38484C31.8032 5.50484 31.8182 5.69984 31.7582 5.96984C31.4882 7.07984 31.1432 8.54984 30.7232 10.3798C30.3332 12.1798 29.8832 14.3398 29.3732 16.8598C31.7132 16.4998 32.8832 15.5398 32.8832 13.9798C32.8832 13.7698 32.9732 13.6648 33.1532 13.6648C33.2432 13.6648 33.3182 13.7398 33.3782 13.8898C33.4682 15.8998 32.1032 17.1298 29.2832 17.5798C29.1632 18.3598 29.0732 19.0798 29.0132 19.7398C28.9532 20.3998 28.9232 21.0148 28.9232 21.5848C28.9232 22.0648 28.9382 22.4998 28.9682 22.8898C29.0282 23.2798 29.0882 23.6398 29.1482 23.9698C29.4782 25.3198 30.0782 25.9948 30.9482 25.9948C31.6982 25.9948 32.6282 25.4848 33.7382 24.4648C33.9482 24.2848 34.2332 23.9998 34.5932 23.6098C34.9532 23.1898 35.4182 22.6798 35.9882 22.0798C36.2282 21.8398 36.3932 21.7198 36.4832 21.7198C36.6032 21.7198 36.6632 21.7948 36.6632 21.9448C36.6632 22.0348 36.6332 22.1398 36.5732 22.2598C36.1532 22.7998 35.7032 23.3098 35.2232 23.7898C34.7432 24.2398 34.2182 24.6748 33.6482 25.0948C32.3582 26.1148 31.2032 26.6248 30.1832 26.6248C28.7432 26.6248 27.8132 25.5898 27.3932 23.5198C27.3032 23.0998 27.2582 22.6048 27.2582 22.0348C27.2582 20.8348 27.4382 19.4098 27.7982 17.7598C27.0182 17.7898 26.0282 17.8348 24.8282 17.8948C23.6582 17.9248 22.2932 17.9698 20.7332 18.0298L16.9982 21.5848C18.1082 22.5148 19.5332 22.9798 21.2732 22.9798C22.4732 22.9798 23.3732 22.6798 23.9732 22.0798C24.0332 21.9898 24.1082 21.9898 24.1982 22.0798C24.2582 22.1698 24.2582 22.2448 24.1982 22.3048C23.5382 22.9648 22.5632 23.2948 21.2732 23.2948C19.4432 23.2948 17.9132 22.8148 16.6832 21.8548C13.6532 24.7048 11.2832 26.6398 9.57322 27.6598C10.4432 28.0798 11.5082 28.3498 12.7682 28.4698C12.9782 28.4998 13.0832 28.5598 13.0832 28.6498C13.0832 28.7998 12.9182 28.8448 12.5882 28.7848C11.2082 28.6348 10.0532 28.3498 9.12322 27.9298C6.09322 29.6998 3.69322 30.5398 1.92322 30.4498ZM14.8832 18.1198C15.3032 18.0598 15.7682 17.9848 16.2782 17.8948C16.7882 17.8048 17.3432 17.7298 17.9432 17.6698C21.0032 14.5198 23.2532 11.4448 24.6932 8.44484C25.3232 7.12484 25.6382 5.93984 25.6382 4.88984C25.6382 3.86984 25.3532 3.05984 24.7832 2.45984C24.2432 1.85984 23.5532 1.55984 22.7132 1.55984C21.4532 1.55984 20.1782 2.15984 18.8882 3.35984C17.4482 4.73984 16.2632 6.70484 15.3332 9.25484C14.7032 10.9648 14.3882 12.7648 14.3882 14.6548C14.3882 15.3148 14.4332 15.9298 14.5232 16.4998C14.6132 17.0698 14.7332 17.6098 14.8832 18.1198ZM21.5882 17.3098C21.9782 17.2498 22.4432 17.2048 22.9832 17.1748C23.5232 17.1448 24.1232 17.1298 24.7832 17.1298C25.5632 17.0998 26.2232 17.0848 26.7632 17.0848C27.3032 17.0848 27.6932 17.0698 27.9332 17.0398C28.1132 16.3198 28.3382 15.5098 28.6082 14.6098C28.8782 13.7098 29.1632 12.7348 29.4632 11.6848L30.9482 6.77984C29.7182 8.75984 28.2782 10.6198 26.6282 12.3598C26.2082 12.8398 25.5632 13.4848 24.6932 14.2948C23.8532 15.1048 22.8182 16.1098 21.5882 17.3098ZM16.4582 21.0898L19.4732 18.2098L17.4932 18.5698L15.7832 20.1898C15.9032 20.3398 16.0082 20.4898 16.0982 20.6398C16.2182 20.7898 16.3382 20.9398 16.4582 21.0898ZM15.6032 19.8748C15.8132 19.6948 16.0082 19.5148 16.1882 19.3348C16.3982 19.1548 16.6082 18.9598 16.8182 18.7498C16.5482 18.8098 16.2782 18.8848 16.0082 18.9748C15.7382 19.0348 15.4832 19.1098 15.2432 19.1998L15.6032 19.8748ZM9.07822 27.3898C9.88822 26.8798 10.8782 26.1298 12.0482 25.1398C13.2482 24.1198 14.6282 22.8598 16.1882 21.3598C15.9182 21.0598 15.6632 20.7598 15.4232 20.4598L15.1082 20.7298C12.7982 22.6798 11.4932 23.6548 11.1932 23.6548C11.1032 23.6548 11.0582 23.6098 11.0582 23.5198C11.0282 23.4598 11.0432 23.3998 11.1032 23.3398C12.2732 22.5898 13.6532 21.5398 15.2432 20.1898C15.0932 19.9498 14.9432 19.6648 14.7932 19.3348C13.1432 19.8748 11.6582 20.6098 10.3382 21.5398C8.59822 22.7398 7.72822 23.9548 7.72822 25.1848C7.72822 25.9648 8.17822 26.6998 9.07822 27.3898ZM35.7066 25.6348C35.4966 25.6348 35.3166 25.5448 35.1666 25.3648C35.0166 25.1848 34.9566 25.0348 34.9866 24.9148L36.3366 21.8098C37.1166 19.9798 37.5066 18.8698 37.5066 18.4798C37.5966 18.3598 37.8966 18.1798 38.4066 17.9398C38.5266 17.8798 38.6316 17.8348 38.7216 17.8048C38.8116 17.7748 38.9016 17.7598 38.9916 17.7598C39.2016 17.7598 39.3066 17.8948 39.3066 18.1648C39.0966 18.7648 38.7816 19.5448 38.3616 20.5048C37.9716 21.4348 37.4616 22.5598 36.8316 23.8798L41.6466 18.7048C42.0666 18.2548 42.3816 18.0298 42.5916 18.0298C42.7416 18.0298 42.8166 18.1198 42.8166 18.2998C42.8166 18.3598 42.8016 18.4348 42.7716 18.5248C42.7716 18.5848 42.7566 18.6598 42.7266 18.7498C42.0966 20.9398 41.7816 22.4398 41.7816 23.2498C41.7816 24.2698 42.1266 24.7798 42.8166 24.7798C43.4466 24.7798 44.1966 24.4348 45.0666 23.7448C45.2166 23.6248 45.4416 23.4148 45.7416 23.1148C46.0716 22.8148 46.4616 22.4248 46.9116 21.9448C47.0316 21.8248 47.1516 21.7648 47.2716 21.7648C47.3616 21.7648 47.4066 21.8248 47.4066 21.9448C47.4366 22.0048 47.4066 22.1098 47.3166 22.2598C45.4266 24.3598 43.7466 25.4098 42.2766 25.4098C40.9566 25.4098 40.2966 24.3748 40.2966 22.3048C40.2966 22.0648 40.2966 21.8248 40.2966 21.5848C40.3266 21.3448 40.3566 21.0898 40.3866 20.8198L38.2716 22.8448C38.0316 23.0548 37.7916 23.2798 37.5516 23.5198C37.3416 23.7598 37.1466 23.9998 36.9666 24.2398L36.0666 25.3648C35.9766 25.5448 35.8566 25.6348 35.7066 25.6348ZM49.5322 25.5898C48.3322 25.5598 47.5972 24.9448 47.3272 23.7448C47.2972 23.5348 47.2672 23.3398 47.2372 23.1598C47.2372 22.9798 47.2372 22.7998 47.2372 22.6198C47.2372 21.4798 47.5522 20.1748 48.1822 18.7048C47.7922 18.7348 47.5072 18.7498 47.3272 18.7498C47.1472 18.7498 47.0872 18.7648 47.1472 18.7948C46.6672 18.7348 46.4272 18.5398 46.4272 18.2098V18.1198C46.4272 17.9098 46.6372 17.8048 47.0572 17.8048L47.8672 17.7598H48.6772C48.7972 17.5198 48.9772 17.1748 49.2172 16.7248C49.4572 16.2448 49.7722 15.6748 50.1622 15.0148C50.3722 14.6548 50.6122 14.2498 50.8822 13.7998C51.1822 13.3498 51.4972 12.8698 51.8272 12.3598C52.2472 11.9998 52.7572 11.8198 53.3572 11.8198C53.8972 11.8198 54.1672 11.9548 54.1672 12.2248C54.1672 12.2848 54.1372 12.3448 54.0772 12.4048C53.6872 12.9448 53.1922 13.6648 52.5922 14.5648C51.9922 15.4648 51.2872 16.5298 50.4772 17.7598H54.8872C55.1572 17.8498 55.2922 17.9698 55.2922 18.1198C55.2922 18.3898 54.9622 18.5698 54.3022 18.6598C54.1822 18.6898 53.7622 18.7048 53.0422 18.7048C52.3222 18.7048 51.3022 18.7048 49.9822 18.7048C49.0522 20.4448 48.5872 21.8548 48.5872 22.9348C48.5872 24.1648 49.1122 24.7798 50.1622 24.7798C50.6722 24.7798 51.2272 24.6148 51.8272 24.2848C52.2472 24.0448 52.6822 23.7448 53.1322 23.3848C53.5822 22.9948 54.0472 22.5448 54.5272 22.0348C54.6772 21.8548 54.8122 21.7648 54.9322 21.7648C55.0522 21.7648 55.1122 21.8248 55.1122 21.9448C55.1122 22.0948 55.0672 22.2148 54.9772 22.3048C52.8772 24.5248 51.0622 25.6198 49.5322 25.5898ZM56.1426 26.3998C54.9126 26.3998 54.2976 25.6798 54.2976 24.2398C54.2976 23.1598 54.5676 21.8998 55.1076 20.4598C55.0776 20.3098 55.0476 20.1598 55.0176 20.0098C55.0176 19.8298 55.0176 19.6498 55.0176 19.4698C55.0176 17.8798 55.7826 17.0248 57.3126 16.9048C57.7026 16.4248 58.0626 16.1848 58.3926 16.1848C58.9326 16.1848 59.2026 16.3348 59.2026 16.6348C59.2026 16.7248 59.1576 16.8148 59.0676 16.9048L58.9326 17.0398C59.6226 17.2498 60.1926 17.6398 60.6426 18.2098C61.0926 18.7798 61.3176 19.3948 61.3176 20.0548C61.3176 21.2248 61.0026 22.3798 60.3726 23.5198L60.2826 23.6098C62.0526 23.5498 63.4776 22.9648 64.5576 21.8548C64.6476 21.7648 64.7526 21.7198 64.8726 21.7198C64.9626 21.7198 65.0076 21.7948 65.0076 21.9448C65.0076 22.0948 64.9176 22.2448 64.7376 22.3948C63.3276 23.6248 61.7076 24.2398 59.8776 24.2398C59.3676 24.8698 58.7676 25.3798 58.0776 25.7698C57.3876 26.1898 56.7426 26.3998 56.1426 26.3998ZM59.3826 23.5648C60.0426 22.3348 60.3726 21.1498 60.3726 20.0098C60.3726 19.3198 60.2076 18.7348 59.8776 18.2548C59.5476 17.7748 59.0976 17.5048 58.5276 17.4448C57.6276 18.4348 56.9076 19.5898 56.3676 20.9098C56.7276 22.4698 57.7326 23.3548 59.3826 23.5648ZM56.7726 25.5898C57.6126 25.5898 58.3626 25.1248 59.0226 24.1948C57.6426 24.0148 56.5926 23.4448 55.8726 22.4848C55.8126 22.7848 55.7526 23.0698 55.6926 23.3398C55.6626 23.6098 55.6476 23.8498 55.6476 24.0598C55.6476 25.0798 56.0226 25.5898 56.7726 25.5898ZM64.0953 25.6348C63.8853 25.6348 63.7053 25.5448 63.5553 25.3648C63.4053 25.1848 63.3453 25.0348 63.3753 24.9148L64.7253 21.8098C65.5053 19.9798 65.8953 18.8698 65.8953 18.4798C65.9853 18.3598 66.2853 18.1798 66.7953 17.9398C66.9153 17.8798 67.0203 17.8348 67.1103 17.8048C67.2003 17.7748 67.2903 17.7598 67.3803 17.7598C67.5903 17.7598 67.6953 17.8948 67.6953 18.1648C67.4853 18.7648 67.1703 19.5448 66.7503 20.5048C66.3603 21.4348 65.8503 22.5598 65.2203 23.8798L70.0353 18.7048C70.4553 18.2548 70.7703 18.0298 70.9803 18.0298C71.1303 18.0298 71.2053 18.1198 71.2053 18.2998C71.2053 18.3598 71.1903 18.4348 71.1603 18.5248C71.1603 18.5848 71.1453 18.6598 71.1153 18.7498C70.4853 20.9398 70.1703 22.4398 70.1703 23.2498C70.1703 24.2698 70.5153 24.7798 71.2053 24.7798C71.8353 24.7798 72.5853 24.4348 73.4553 23.7448C73.6053 23.6248 73.8303 23.4148 74.1303 23.1148C74.4603 22.8148 74.8503 22.4248 75.3003 21.9448C75.4203 21.8248 75.5403 21.7648 75.6603 21.7648C75.7503 21.7648 75.7953 21.8248 75.7953 21.9448C75.8253 22.0048 75.7953 22.1098 75.7053 22.2598C73.8153 24.3598 72.1353 25.4098 70.6653 25.4098C69.3453 25.4098 68.6853 24.3748 68.6853 22.3048C68.6853 22.0648 68.6853 21.8248 68.6853 21.5848C68.7153 21.3448 68.7453 21.0898 68.7753 20.8198L66.6603 22.8448C66.4203 23.0548 66.1803 23.2798 65.9403 23.5198C65.7303 23.7598 65.5353 23.9998 65.3553 24.2398L64.4553 25.3648C64.3653 25.5448 64.2453 25.6348 64.0953 25.6348ZM80.9358 14.3398C80.6658 14.3398 80.4108 14.2348 80.1708 14.0248C79.9608 13.7848 79.8558 13.5298 79.8558 13.2598C79.8558 12.8998 80.0208 12.5998 80.3508 12.3598C80.5908 12.1498 80.8608 12.0448 81.1608 12.0448C81.8508 12.0448 82.1958 12.3448 82.1958 12.9448C82.1958 13.8748 81.7758 14.3398 80.9358 14.3398ZM77.9208 25.5898C76.1808 25.5598 75.4008 24.3598 75.5808 21.9898C75.6108 20.9698 76.1658 19.6648 77.2458 18.0748C77.4258 17.7448 77.8158 17.5798 78.4158 17.5798C78.8658 17.5798 79.0908 17.7148 79.0908 17.9848L79.0458 18.2098L77.9208 20.1448C77.4708 20.9848 77.2308 21.6298 77.2008 22.0798C77.1708 22.2298 77.1408 22.3948 77.1108 22.5748C77.1108 22.7248 77.1108 22.8748 77.1108 23.0248C77.1108 24.2548 77.5458 24.8698 78.4158 24.8698C79.6158 24.8698 81.1158 23.9248 82.9158 22.0348C83.0958 21.8248 83.2458 21.7198 83.3658 21.7198C83.4558 21.7498 83.5008 21.8248 83.5008 21.9448C83.5008 22.0348 83.4558 22.1548 83.3658 22.3048C81.2658 24.5548 79.4508 25.6498 77.9208 25.5898ZM84.5313 26.3998C83.3013 26.3998 82.6863 25.6798 82.6863 24.2398C82.6863 23.1598 82.9563 21.8998 83.4963 20.4598C83.4663 20.3098 83.4363 20.1598 83.4063 20.0098C83.4063 19.8298 83.4063 19.6498 83.4063 19.4698C83.4063 17.8798 84.1713 17.0248 85.7013 16.9048C86.0913 16.4248 86.4513 16.1848 86.7813 16.1848C87.3213 16.1848 87.5913 16.3348 87.5913 16.6348C87.5913 16.7248 87.5463 16.8148 87.4563 16.9048L87.3213 17.0398C88.0113 17.2498 88.5813 17.6398 89.0313 18.2098C89.4813 18.7798 89.7063 19.3948 89.7063 20.0548C89.7063 21.2248 89.3913 22.3798 88.7613 23.5198L88.6713 23.6098C90.4413 23.5498 91.8663 22.9648 92.9463 21.8548C93.0363 21.7648 93.1413 21.7198 93.2613 21.7198C93.3513 21.7198 93.3963 21.7948 93.3963 21.9448C93.3963 22.0948 93.3063 22.2448 93.1263 22.3948C91.7163 23.6248 90.0963 24.2398 88.2663 24.2398C87.7563 24.8698 87.1563 25.3798 86.4663 25.7698C85.7763 26.1898 85.1313 26.3998 84.5313 26.3998ZM87.7713 23.5648C88.4313 22.3348 88.7613 21.1498 88.7613 20.0098C88.7613 19.3198 88.5963 18.7348 88.2663 18.2548C87.9363 17.7748 87.4863 17.5048 86.9163 17.4448C86.0163 18.4348 85.2963 19.5898 84.7563 20.9098C85.1163 22.4698 86.1213 23.3548 87.7713 23.5648ZM85.1613 25.5898C86.0013 25.5898 86.7513 25.1248 87.4113 24.1948C86.0313 24.0148 84.9813 23.4448 84.2613 22.4848C84.2013 22.7848 84.1413 23.0698 84.0813 23.3398C84.0513 23.6098 84.0363 23.8498 84.0363 24.0598C84.0363 25.0798 84.4113 25.5898 85.1613 25.5898ZM117.21 27.0298C115.02 27.0298 113.145 26.6848 111.585 25.9948C110.025 25.3348 108.825 24.4198 107.985 23.2498C107.145 22.0498 106.725 20.6998 106.725 19.1998C106.725 17.7598 107.13 16.2298 107.94 14.6098C106.44 13.7098 105.69 12.3898 105.69 10.6498C105.69 8.93984 106.41 7.57484 107.85 6.55484C109.26 5.50484 111 4.97984 113.07 4.97984C114.63 4.97984 116.235 5.24984 117.885 5.78984C121.575 4.04984 125.34 3.17984 129.18 3.17984C131.25 3.17984 132.81 3.61484 133.86 4.48484C134.73 5.20484 135.165 6.13484 135.165 7.27484C135.165 8.08484 134.97 8.83484 134.58 9.52484C133.98 10.6348 133.08 11.6848 131.88 12.6748C130.71 13.6348 129.24 14.5348 127.47 15.3748L127.425 15.4198C127.245 15.4798 127.125 15.5098 127.065 15.5098C127.005 15.5098 126.975 15.4798 126.975 15.4198C126.975 15.2998 127.05 15.1798 127.2 15.0598C127.35 14.7598 127.425 14.4748 127.425 14.2048C127.425 13.3348 126.885 12.2998 125.805 11.0998C125.415 10.6798 125.04 10.3048 124.68 9.97484C124.32 9.64484 123.96 9.35984 123.6 9.11984C122.85 8.60984 122.1 8.14484 121.35 7.72484C120.6 7.30484 119.835 6.94484 119.055 6.64484C115.335 8.26484 112.425 10.4698 110.325 13.2598C110.115 13.4698 109.92 13.6948 109.74 13.9348C109.59 14.1748 109.44 14.4148 109.29 14.6548C110.55 15.1648 111.84 15.4198 113.16 15.4198C114.87 15.4198 115.875 15.1048 116.175 14.4748C116.175 14.4148 116.205 14.3848 116.265 14.3848C116.355 14.3848 116.415 14.4148 116.445 14.4748C116.505 14.5348 116.505 14.5948 116.445 14.6548C116.265 15.0148 115.815 15.2998 115.095 15.5098C114.405 15.7198 113.595 15.8248 112.665 15.8248C111.375 15.8248 110.145 15.6148 108.975 15.1948C108.045 16.7548 107.58 18.2398 107.58 19.6498C107.58 21.5698 108.48 23.0998 110.28 24.2398C112.08 25.3498 114.495 25.9048 117.525 25.9048C118.275 25.9048 119.055 25.8598 119.865 25.7698C122.145 25.5298 123.975 25.2598 125.355 24.9598C127.965 24.2698 129.99 23.2498 131.43 21.8998C131.55 21.7798 131.64 21.7198 131.7 21.7198C131.82 21.7198 131.88 21.8098 131.88 21.9898C131.85 22.0798 131.775 22.2148 131.655 22.3948C130.425 23.4448 128.475 24.4498 125.805 25.4098C124.695 25.7998 123.66 26.0998 122.7 26.3098C121.74 26.5498 120.825 26.7298 119.955 26.8498C119.475 26.9098 118.995 26.9548 118.515 26.9848C118.065 27.0148 117.63 27.0298 117.21 27.0298ZM127.92 14.6098C128.58 14.2498 129.15 13.9198 129.63 13.6198C130.14 13.3198 130.545 13.0648 130.845 12.8548C132.105 11.8948 133.005 10.8448 133.545 9.70484C133.845 9.10484 133.995 8.50484 133.995 7.90484C133.995 6.79484 133.455 5.95484 132.375 5.38484C131.355 4.84484 129.96 4.57484 128.19 4.57484C125.49 4.57484 122.61 5.18984 119.55 6.41984C120.3 6.71984 121.02 7.07984 121.71 7.49984C122.43 7.88984 123.135 8.33984 123.825 8.84984C124.785 9.53984 125.655 10.3198 126.435 11.1898C127.455 12.3298 127.965 13.3198 127.965 14.1598C127.965 14.2198 127.965 14.2948 127.965 14.3848C127.965 14.4748 127.95 14.5498 127.92 14.6098ZM108.21 14.0698C108.39 13.7398 108.585 13.4248 108.795 13.1248C109.005 12.7948 109.23 12.4798 109.47 12.1798C111.42 9.74984 114.015 7.70984 117.255 6.05984C115.905 5.69984 114.57 5.51984 113.25 5.51984C111.33 5.51984 109.635 5.99984 108.165 6.95984C106.815 7.85984 106.14 9.04484 106.14 10.5148C106.14 12.0448 106.83 13.2298 108.21 14.0698ZM131.611 25.6348C130.921 25.6348 130.576 25.1848 130.576 24.2848C130.576 23.5648 130.846 22.7848 131.386 21.9448C132.646 20.0548 134.011 18.7798 135.481 18.1198C136.111 17.8198 136.726 17.6698 137.326 17.6698C137.626 17.6698 137.956 17.7598 138.316 17.9398C138.676 18.0898 138.856 18.3148 138.856 18.6148C138.856 18.7648 138.751 18.8548 138.541 18.8848C138.421 18.9148 138.331 18.9448 138.271 18.9748C138.241 19.0048 138.211 19.0348 138.181 19.0648C137.491 20.3548 137.146 21.5548 137.146 22.6648C137.146 24.0748 137.701 24.7798 138.811 24.7798C139.981 24.7798 141.436 23.8648 143.176 22.0348C143.326 21.8548 143.446 21.7648 143.536 21.7648C143.626 21.7648 143.671 21.8248 143.671 21.9448C143.671 22.0648 143.626 22.1998 143.536 22.3498C141.526 24.5098 139.771 25.5898 138.271 25.5898C137.551 25.5898 136.966 25.2748 136.516 24.6448C136.036 23.9848 135.781 23.1898 135.751 22.2598C135.001 23.2498 134.251 24.0748 133.501 24.7348C132.721 25.3348 132.091 25.6348 131.611 25.6348ZM132.556 24.2848C132.886 24.2848 133.321 24.0598 133.861 23.6098C134.341 23.1898 134.746 22.7848 135.076 22.3948C135.406 21.9748 135.646 21.5548 135.796 21.1348C135.856 20.6248 135.946 20.1748 136.066 19.7848C136.216 19.3648 136.366 18.9898 136.516 18.6598C134.956 18.6298 133.621 19.7098 132.511 21.8998C132.181 22.4998 132.016 23.0398 132.016 23.5198C132.016 24.0298 132.196 24.2848 132.556 24.2848ZM149.371 26.3098C148.021 26.3098 147.346 25.5748 147.346 24.1048C147.346 23.0848 147.781 21.7798 148.651 20.1898C148.201 20.2498 147.766 20.0998 147.346 19.7398C146.956 19.3798 146.761 18.9598 146.761 18.4798C145.981 19.9498 144.811 21.3298 143.251 22.6198C143.131 22.7398 142.981 22.7998 142.801 22.7998C142.681 22.7998 142.621 22.7548 142.621 22.6648C142.621 22.5448 142.711 22.4248 142.891 22.3048C144.241 21.0748 145.396 19.5598 146.356 17.7598L146.266 17.3098C146.236 17.1598 146.206 17.0248 146.176 16.9048C146.176 16.7548 146.176 16.6198 146.176 16.4998C146.176 15.7798 146.371 15.2098 146.761 14.7898C147.121 14.3998 147.526 14.2048 147.976 14.2048C148.546 14.2048 148.831 14.5048 148.831 15.1048C148.831 15.8548 148.336 16.8148 147.346 17.9848V18.0748C147.346 18.5848 147.646 18.8398 148.246 18.8398C148.486 18.8398 148.771 18.7798 149.101 18.6598C149.461 18.5698 149.716 18.5248 149.866 18.5248C150.406 18.5248 150.676 18.8098 150.676 19.3798C150.676 19.5898 150.601 19.8148 150.451 20.0548C150.241 20.3548 149.971 20.8948 149.641 21.6748C149.251 22.5148 149.026 23.1298 148.966 23.5198C148.936 23.6398 148.906 23.7598 148.876 23.8798C148.876 23.9998 148.876 24.1198 148.876 24.2398C148.876 25.0198 149.236 25.4098 149.956 25.4098C150.856 25.4098 151.996 25.0048 153.376 24.1948C153.976 23.8648 154.516 23.5198 154.996 23.1598C155.476 22.7998 155.911 22.4248 156.301 22.0348C156.481 21.8548 156.631 21.7648 156.751 21.7648C156.841 21.7648 156.886 21.8248 156.886 21.9448C156.886 22.0948 156.796 22.2598 156.616 22.4398C154.516 24.2398 152.746 25.3948 151.306 25.9048C150.556 26.1748 149.911 26.3098 149.371 26.3098ZM159.36 26.6698C157.92 26.6698 157.2 25.9198 157.2 24.4198C157.2 23.9398 157.29 23.3698 157.47 22.7098C156.42 21.5098 155.895 20.2198 155.895 18.8398C155.895 17.8198 156.18 17.0248 156.75 16.4548C157.35 15.7648 158.19 15.4198 159.27 15.4198C159.69 15.4198 160.125 15.4648 160.575 15.5548C161.745 13.3948 162.81 11.5948 163.77 10.1548C164.76 8.68484 165.645 7.57484 166.425 6.82484C166.605 6.64484 166.875 6.55484 167.235 6.55484C167.925 6.55484 168.27 6.71984 168.27 7.04984C168.27 7.13984 168.225 7.22984 168.135 7.31984C166.605 8.75984 164.55 11.6398 161.97 15.9598C163.92 16.8598 164.895 18.3298 164.895 20.3698C164.895 21.5998 164.415 22.8748 163.455 24.1948C165.015 23.9548 166.395 23.1898 167.595 21.8998C167.745 21.8098 167.85 21.7648 167.91 21.7648C168 21.7648 168.045 21.8248 168.045 21.9448C168.045 22.0948 167.955 22.2448 167.775 22.3948C166.185 23.8048 164.58 24.6298 162.96 24.8698C161.85 26.0698 160.65 26.6698 159.36 26.6698ZM157.83 21.4948C158.04 20.8648 158.325 20.1448 158.685 19.3348C159.075 18.5248 159.525 17.6398 160.035 16.6798L160.305 16.1398C159.255 16.0498 158.445 16.2898 157.875 16.8598C157.365 17.3698 157.11 18.0598 157.11 18.9298C157.11 19.7998 157.35 20.6548 157.83 21.4948ZM161.88 24.2398C162.24 23.7898 162.495 23.3848 162.645 23.0248C163.275 21.7648 163.59 20.6098 163.59 19.5598C163.59 17.9098 162.975 16.8748 161.745 16.4548C161.355 17.1148 160.98 17.8048 160.62 18.5248C160.26 19.2148 159.915 19.9048 159.585 20.5948C159.225 21.3748 158.955 22.0648 158.775 22.6648C159.705 23.5348 160.74 24.0598 161.88 24.2398ZM159.27 26.0848C159.9 26.0848 160.59 25.6648 161.34 24.8248C160.38 24.7048 159.45 24.3148 158.55 23.6548C158.46 24.0448 158.415 24.3898 158.415 24.6898C158.415 25.6198 158.7 26.0848 159.27 26.0848ZM169.082 26.3998C167.852 26.3998 167.237 25.6798 167.237 24.2398C167.237 23.1598 167.507 21.8998 168.047 20.4598C168.017 20.3098 167.987 20.1598 167.957 20.0098C167.957 19.8298 167.957 19.6498 167.957 19.4698C167.957 17.8798 168.722 17.0248 170.252 16.9048C170.642 16.4248 171.002 16.1848 171.332 16.1848C171.872 16.1848 172.142 16.3348 172.142 16.6348C172.142 16.7248 172.097 16.8148 172.007 16.9048L171.872 17.0398C172.562 17.2498 173.132 17.6398 173.582 18.2098C174.032 18.7798 174.257 19.3948 174.257 20.0548C174.257 21.2248 173.942 22.3798 173.312 23.5198L173.222 23.6098C174.992 23.5498 176.417 22.9648 177.497 21.8548C177.587 21.7648 177.692 21.7198 177.812 21.7198C177.902 21.7198 177.947 21.7948 177.947 21.9448C177.947 22.0948 177.857 22.2448 177.677 22.3948C176.267 23.6248 174.647 24.2398 172.817 24.2398C172.307 24.8698 171.707 25.3798 171.017 25.7698C170.327 26.1898 169.682 26.3998 169.082 26.3998ZM172.322 23.5648C172.982 22.3348 173.312 21.1498 173.312 20.0098C173.312 19.3198 173.147 18.7348 172.817 18.2548C172.487 17.7748 172.037 17.5048 171.467 17.4448C170.567 18.4348 169.847 19.5898 169.307 20.9098C169.667 22.4698 170.672 23.3548 172.322 23.5648ZM169.712 25.5898C170.552 25.5898 171.302 25.1248 171.962 24.1948C170.582 24.0148 169.532 23.4448 168.812 22.4848C168.752 22.7848 168.692 23.0698 168.632 23.3398C168.602 23.6098 168.587 23.8498 168.587 24.0598C168.587 25.0798 168.962 25.5898 169.712 25.5898ZM177.035 25.6348C176.825 25.6348 176.645 25.5448 176.495 25.3648C176.345 25.1848 176.285 25.0348 176.315 24.9148L177.665 21.8098C178.445 19.9798 178.835 18.8698 178.835 18.4798C178.925 18.3598 179.225 18.1798 179.735 17.9398C179.855 17.8798 179.96 17.8348 180.05 17.8048C180.14 17.7748 180.23 17.7598 180.32 17.7598C180.53 17.7598 180.635 17.8948 180.635 18.1648C180.425 18.7648 180.11 19.5448 179.69 20.5048C179.3 21.4348 178.79 22.5598 178.16 23.8798L182.975 18.7048C183.395 18.2548 183.71 18.0298 183.92 18.0298C184.07 18.0298 184.145 18.1198 184.145 18.2998C184.145 18.3598 184.13 18.4348 184.1 18.5248C184.1 18.5848 184.085 18.6598 184.055 18.7498C183.425 20.9398 183.11 22.4398 183.11 23.2498C183.11 24.2698 183.455 24.7798 184.145 24.7798C184.775 24.7798 185.525 24.4348 186.395 23.7448C186.545 23.6248 186.77 23.4148 187.07 23.1148C187.4 22.8148 187.79 22.4248 188.24 21.9448C188.36 21.8248 188.48 21.7648 188.6 21.7648C188.69 21.7648 188.735 21.8248 188.735 21.9448C188.765 22.0048 188.735 22.1098 188.645 22.2598C186.755 24.3598 185.075 25.4098 183.605 25.4098C182.285 25.4098 181.625 24.3748 181.625 22.3048C181.625 22.0648 181.625 21.8248 181.625 21.5848C181.655 21.3448 181.685 21.0898 181.715 20.8198L179.6 22.8448C179.36 23.0548 179.12 23.2798 178.88 23.5198C178.67 23.7598 178.475 23.9998 178.295 24.2398L177.395 25.3648C177.305 25.5448 177.185 25.6348 177.035 25.6348ZM190.68 25.9948C188.94 25.9948 188.07 25.0348 188.07 23.1148C188.07 22.4548 188.31 21.6298 188.79 20.6398C189.27 19.6198 189.855 18.7798 190.545 18.1198C191.385 17.3398 192.15 16.9498 192.84 16.9498C193.77 16.9498 194.235 17.4148 194.235 18.3448C194.235 18.9448 193.995 19.5448 193.515 20.1448C192.615 21.2248 191.355 21.9598 189.735 22.3498C189.705 22.5598 189.675 22.7548 189.645 22.9348C189.645 23.0848 189.645 23.2348 189.645 23.3848C189.645 24.6448 190.23 25.2748 191.4 25.2748C192.33 25.2748 193.5 24.8848 194.91 24.1048C195.51 23.7748 196.05 23.4298 196.53 23.0698C197.01 22.7098 197.415 22.3648 197.745 22.0348C198.105 21.6148 198.285 21.5848 198.285 21.9448C198.285 22.0948 198.225 22.2298 198.105 22.3498C197.775 22.7398 197.34 23.1448 196.8 23.5648C196.29 23.9548 195.66 24.3448 194.91 24.7348C193.32 25.5748 191.91 25.9948 190.68 25.9948ZM189.915 21.8548C191.385 21.3748 192.39 20.6548 192.93 19.6948C193.29 19.0948 193.47 18.5848 193.47 18.1648C193.47 17.8348 193.365 17.6698 193.155 17.6698C192.915 17.6698 192.585 17.8948 192.165 18.3448C191.745 18.7648 191.325 19.2898 190.905 19.9198C190.515 20.5498 190.185 21.1948 189.915 21.8548Z" fill="white"/>
</svg>
